G04 EAGLE Gerber RS-274X export*
G75*
%MOMM*%
%FSLAX34Y34*%
%LPD*%
%INTop Copper*%
%IPPOS*%
%AMOC8*
5,1,8,0,0,1.08239X$1,22.5*%
G01*
%ADD10C,2.775000*%
%ADD11R,1.650000X1.650000*%
%ADD12C,1.650000*%
%ADD13C,1.270000*%

G36*
X231460Y5603D02*
X231460Y5603D01*
X231551Y5611D01*
X231581Y5623D01*
X231612Y5628D01*
X231693Y5671D01*
X231777Y5707D01*
X231809Y5733D01*
X231830Y5744D01*
X231852Y5767D01*
X231908Y5812D01*
X248188Y22092D01*
X248241Y22166D01*
X248301Y22235D01*
X248313Y22266D01*
X248332Y22292D01*
X248359Y22379D01*
X248393Y22464D01*
X248397Y22504D01*
X248404Y22527D01*
X248403Y22559D01*
X248411Y22630D01*
X248411Y358370D01*
X248397Y358460D01*
X248389Y358551D01*
X248377Y358581D01*
X248372Y358613D01*
X248329Y358693D01*
X248293Y358777D01*
X248267Y358809D01*
X248256Y358830D01*
X248233Y358852D01*
X248188Y358908D01*
X231908Y375188D01*
X231834Y375241D01*
X231765Y375301D01*
X231734Y375313D01*
X231708Y375332D01*
X231621Y375359D01*
X231536Y375393D01*
X231496Y375397D01*
X231473Y375404D01*
X231441Y375403D01*
X231370Y375411D01*
X22630Y375411D01*
X22540Y375397D01*
X22449Y375389D01*
X22419Y375377D01*
X22388Y375372D01*
X22307Y375329D01*
X22223Y375293D01*
X22191Y375267D01*
X22170Y375256D01*
X22148Y375233D01*
X22092Y375188D01*
X5812Y358908D01*
X5759Y358834D01*
X5699Y358765D01*
X5687Y358734D01*
X5668Y358708D01*
X5641Y358621D01*
X5607Y358536D01*
X5603Y358496D01*
X5596Y358473D01*
X5597Y358441D01*
X5589Y358370D01*
X5589Y22630D01*
X5603Y22540D01*
X5611Y22449D01*
X5623Y22419D01*
X5628Y22388D01*
X5671Y22307D01*
X5707Y22223D01*
X5733Y22191D01*
X5744Y22170D01*
X5767Y22148D01*
X5812Y22092D01*
X22092Y5812D01*
X22166Y5759D01*
X22235Y5699D01*
X22266Y5687D01*
X22292Y5668D01*
X22379Y5641D01*
X22464Y5607D01*
X22504Y5603D01*
X22527Y5596D01*
X22559Y5597D01*
X22630Y5589D01*
X231370Y5589D01*
X231460Y5603D01*
G37*
%LPC*%
G36*
X132118Y107225D02*
X132118Y107225D01*
X131225Y108118D01*
X131225Y125882D01*
X132118Y126775D01*
X149882Y126775D01*
X150775Y125882D01*
X150775Y125636D01*
X150778Y125616D01*
X150776Y125597D01*
X150798Y125495D01*
X150814Y125393D01*
X150824Y125376D01*
X150828Y125356D01*
X150881Y125267D01*
X150930Y125176D01*
X150944Y125162D01*
X150954Y125145D01*
X151033Y125078D01*
X151108Y125006D01*
X151126Y124998D01*
X151141Y124985D01*
X151237Y124946D01*
X151331Y124903D01*
X151351Y124901D01*
X151369Y124893D01*
X151536Y124875D01*
X159423Y124875D01*
X159513Y124889D01*
X159604Y124897D01*
X159634Y124909D01*
X159666Y124914D01*
X159746Y124957D01*
X159830Y124993D01*
X159862Y125019D01*
X159883Y125030D01*
X159905Y125053D01*
X159961Y125098D01*
X166762Y131899D01*
X166815Y131973D01*
X166875Y132042D01*
X166887Y132072D01*
X166906Y132099D01*
X166933Y132186D01*
X166967Y132270D01*
X166971Y132311D01*
X166978Y132334D01*
X166977Y132366D01*
X166985Y132437D01*
X166985Y288245D01*
X166967Y288359D01*
X166949Y288476D01*
X166947Y288481D01*
X166946Y288487D01*
X166891Y288590D01*
X166838Y288695D01*
X166833Y288699D01*
X166830Y288705D01*
X166746Y288785D01*
X166662Y288867D01*
X166656Y288871D01*
X166652Y288874D01*
X166635Y288882D01*
X166515Y288948D01*
X166137Y289105D01*
X161805Y293437D01*
X159460Y299097D01*
X159460Y305223D01*
X161805Y310883D01*
X166137Y315215D01*
X171797Y317560D01*
X177923Y317560D01*
X183583Y315215D01*
X187915Y310883D01*
X190260Y305223D01*
X190260Y299097D01*
X187915Y293437D01*
X183583Y289105D01*
X183205Y288948D01*
X183106Y288887D01*
X183005Y288826D01*
X183001Y288822D01*
X182996Y288818D01*
X182922Y288729D01*
X182845Y288640D01*
X182843Y288634D01*
X182839Y288629D01*
X182797Y288521D01*
X182753Y288411D01*
X182752Y288404D01*
X182751Y288399D01*
X182750Y288381D01*
X182735Y288245D01*
X182735Y127294D01*
X181536Y124399D01*
X167461Y110324D01*
X164566Y109125D01*
X151536Y109125D01*
X151516Y109122D01*
X151497Y109124D01*
X151395Y109102D01*
X151293Y109086D01*
X151276Y109076D01*
X151256Y109072D01*
X151167Y109019D01*
X151076Y108970D01*
X151062Y108956D01*
X151045Y108946D01*
X150978Y108867D01*
X150906Y108792D01*
X150898Y108774D01*
X150885Y108759D01*
X150846Y108663D01*
X150803Y108569D01*
X150801Y108549D01*
X150793Y108531D01*
X150775Y108364D01*
X150775Y108118D01*
X149882Y107225D01*
X132118Y107225D01*
G37*
%LPD*%
%LPC*%
G36*
X113656Y107225D02*
X113656Y107225D01*
X110063Y108713D01*
X107313Y111463D01*
X105825Y115056D01*
X105825Y118944D01*
X107313Y122537D01*
X107502Y122726D01*
X107555Y122800D01*
X107615Y122869D01*
X107627Y122899D01*
X107646Y122926D01*
X107673Y123013D01*
X107707Y123097D01*
X107711Y123138D01*
X107718Y123161D01*
X107717Y123193D01*
X107725Y123264D01*
X107725Y164566D01*
X108924Y167461D01*
X119262Y177799D01*
X119315Y177873D01*
X119375Y177942D01*
X119387Y177972D01*
X119406Y177999D01*
X119433Y178086D01*
X119467Y178170D01*
X119471Y178211D01*
X119478Y178234D01*
X119477Y178266D01*
X119485Y178337D01*
X119485Y288245D01*
X119467Y288359D01*
X119449Y288476D01*
X119447Y288481D01*
X119446Y288487D01*
X119391Y288590D01*
X119338Y288695D01*
X119333Y288699D01*
X119330Y288705D01*
X119246Y288785D01*
X119162Y288867D01*
X119156Y288871D01*
X119152Y288874D01*
X119135Y288882D01*
X119015Y288948D01*
X118637Y289105D01*
X114305Y293437D01*
X111960Y299097D01*
X111960Y305223D01*
X114305Y310883D01*
X118637Y315215D01*
X124297Y317560D01*
X130423Y317560D01*
X136083Y315215D01*
X140415Y310883D01*
X142760Y305223D01*
X142760Y299097D01*
X140415Y293437D01*
X136083Y289105D01*
X135705Y288948D01*
X135606Y288887D01*
X135505Y288826D01*
X135501Y288822D01*
X135496Y288818D01*
X135422Y288729D01*
X135345Y288640D01*
X135343Y288634D01*
X135339Y288629D01*
X135297Y288521D01*
X135253Y288411D01*
X135252Y288404D01*
X135251Y288399D01*
X135250Y288381D01*
X135235Y288245D01*
X135235Y173194D01*
X134036Y170299D01*
X123698Y159961D01*
X123645Y159887D01*
X123585Y159818D01*
X123573Y159788D01*
X123554Y159761D01*
X123527Y159674D01*
X123493Y159590D01*
X123489Y159549D01*
X123482Y159526D01*
X123483Y159494D01*
X123475Y159423D01*
X123475Y123264D01*
X123489Y123174D01*
X123497Y123083D01*
X123509Y123053D01*
X123514Y123021D01*
X123557Y122941D01*
X123593Y122857D01*
X123619Y122825D01*
X123630Y122804D01*
X123653Y122782D01*
X123698Y122726D01*
X123887Y122537D01*
X125375Y118944D01*
X125375Y115056D01*
X123887Y111463D01*
X121137Y108713D01*
X117544Y107225D01*
X113656Y107225D01*
G37*
%LPD*%
%LPC*%
G36*
X183022Y37218D02*
X183022Y37218D01*
X174033Y41694D01*
X167267Y49115D01*
X163640Y58479D01*
X163640Y68521D01*
X167267Y77885D01*
X174033Y85306D01*
X183022Y89782D01*
X193021Y90709D01*
X202680Y87961D01*
X210694Y81909D01*
X215980Y73371D01*
X217826Y63500D01*
X215980Y53629D01*
X210694Y45091D01*
X202680Y39039D01*
X193021Y36291D01*
X183022Y37218D01*
G37*
%LPD*%
%LPC*%
G36*
X56022Y37218D02*
X56022Y37218D01*
X47033Y41694D01*
X40267Y49115D01*
X36640Y58479D01*
X36640Y68521D01*
X40267Y77885D01*
X47033Y85306D01*
X56022Y89782D01*
X66021Y90709D01*
X75680Y87961D01*
X83694Y81909D01*
X88980Y73371D01*
X90826Y63500D01*
X88980Y53629D01*
X83694Y45091D01*
X75680Y39039D01*
X66021Y36291D01*
X56022Y37218D01*
G37*
%LPD*%
G36*
X65065Y47423D02*
X65065Y47423D01*
X65096Y47425D01*
X65108Y47430D01*
X65129Y47433D01*
X70573Y48982D01*
X70624Y49006D01*
X70679Y49021D01*
X70767Y49074D01*
X70795Y49087D01*
X70805Y49096D01*
X70823Y49107D01*
X75339Y52518D01*
X75379Y52559D01*
X75424Y52592D01*
X75488Y52673D01*
X75509Y52696D01*
X75515Y52708D01*
X75528Y52724D01*
X78507Y57536D01*
X78529Y57589D01*
X78560Y57637D01*
X78589Y57735D01*
X78601Y57763D01*
X78602Y57777D01*
X78608Y57797D01*
X79648Y63360D01*
X79650Y63417D01*
X79661Y63473D01*
X79653Y63575D01*
X79654Y63606D01*
X79650Y63619D01*
X79648Y63640D01*
X78608Y69203D01*
X78589Y69256D01*
X78579Y69312D01*
X78535Y69405D01*
X78525Y69434D01*
X78516Y69445D01*
X78507Y69464D01*
X75528Y74276D01*
X75491Y74319D01*
X75461Y74367D01*
X75387Y74438D01*
X75366Y74461D01*
X75355Y74468D01*
X75339Y74482D01*
X70823Y77893D01*
X70773Y77919D01*
X70728Y77954D01*
X70633Y77993D01*
X70605Y78008D01*
X70592Y78010D01*
X70573Y78018D01*
X65129Y79567D01*
X65073Y79573D01*
X65018Y79589D01*
X64916Y79591D01*
X64885Y79595D01*
X64872Y79592D01*
X64851Y79592D01*
X59215Y79070D01*
X59160Y79056D01*
X59104Y79051D01*
X59007Y79016D01*
X58977Y79008D01*
X58966Y79001D01*
X58946Y78994D01*
X53880Y76471D01*
X53834Y76438D01*
X53783Y76413D01*
X53706Y76345D01*
X53681Y76327D01*
X53673Y76316D01*
X53657Y76302D01*
X49844Y72120D01*
X49813Y72072D01*
X49774Y72031D01*
X49727Y71940D01*
X49710Y71914D01*
X49707Y71901D01*
X49697Y71882D01*
X47652Y66605D01*
X47641Y66549D01*
X47619Y66496D01*
X47608Y66394D01*
X47602Y66364D01*
X47603Y66351D01*
X47601Y66330D01*
X47601Y60670D01*
X47610Y60614D01*
X47609Y60557D01*
X47636Y60458D01*
X47641Y60428D01*
X47647Y60416D01*
X47652Y60395D01*
X49697Y55118D01*
X49726Y55069D01*
X49745Y55016D01*
X49806Y54933D01*
X49822Y54906D01*
X49832Y54897D01*
X49844Y54880D01*
X53657Y50698D01*
X53701Y50662D01*
X53739Y50620D01*
X53825Y50564D01*
X53850Y50545D01*
X53862Y50541D01*
X53880Y50529D01*
X58946Y48006D01*
X59001Y47990D01*
X59051Y47964D01*
X59152Y47943D01*
X59181Y47934D01*
X59195Y47934D01*
X59215Y47930D01*
X64851Y47408D01*
X64907Y47412D01*
X64964Y47406D01*
X65065Y47423D01*
G37*
G36*
X192065Y47423D02*
X192065Y47423D01*
X192096Y47425D01*
X192108Y47430D01*
X192129Y47433D01*
X197573Y48982D01*
X197624Y49006D01*
X197679Y49021D01*
X197767Y49074D01*
X197795Y49087D01*
X197805Y49096D01*
X197823Y49107D01*
X202339Y52518D01*
X202379Y52559D01*
X202424Y52592D01*
X202488Y52673D01*
X202509Y52696D01*
X202515Y52708D01*
X202528Y52724D01*
X205507Y57536D01*
X205529Y57589D01*
X205560Y57637D01*
X205589Y57735D01*
X205601Y57763D01*
X205602Y57777D01*
X205608Y57797D01*
X206648Y63360D01*
X206650Y63417D01*
X206661Y63473D01*
X206653Y63575D01*
X206654Y63606D01*
X206650Y63619D01*
X206648Y63640D01*
X205608Y69203D01*
X205589Y69256D01*
X205579Y69312D01*
X205535Y69405D01*
X205525Y69434D01*
X205516Y69445D01*
X205507Y69464D01*
X202528Y74276D01*
X202491Y74319D01*
X202461Y74367D01*
X202387Y74438D01*
X202366Y74461D01*
X202355Y74468D01*
X202339Y74482D01*
X197823Y77893D01*
X197773Y77919D01*
X197728Y77954D01*
X197633Y77993D01*
X197605Y78008D01*
X197592Y78010D01*
X197573Y78018D01*
X192129Y79567D01*
X192073Y79573D01*
X192018Y79589D01*
X191916Y79591D01*
X191885Y79595D01*
X191872Y79592D01*
X191851Y79592D01*
X186215Y79070D01*
X186160Y79056D01*
X186104Y79051D01*
X186007Y79016D01*
X185977Y79008D01*
X185966Y79001D01*
X185946Y78994D01*
X180880Y76471D01*
X180834Y76438D01*
X180783Y76413D01*
X180706Y76345D01*
X180681Y76327D01*
X180673Y76316D01*
X180657Y76302D01*
X176844Y72120D01*
X176813Y72072D01*
X176774Y72031D01*
X176727Y71940D01*
X176710Y71914D01*
X176707Y71901D01*
X176697Y71882D01*
X174652Y66605D01*
X174641Y66549D01*
X174619Y66496D01*
X174608Y66394D01*
X174602Y66364D01*
X174603Y66351D01*
X174601Y66330D01*
X174601Y60670D01*
X174610Y60614D01*
X174609Y60557D01*
X174636Y60458D01*
X174641Y60428D01*
X174647Y60416D01*
X174652Y60395D01*
X176697Y55118D01*
X176726Y55069D01*
X176745Y55016D01*
X176806Y54933D01*
X176822Y54906D01*
X176832Y54897D01*
X176844Y54880D01*
X180657Y50698D01*
X180701Y50662D01*
X180739Y50620D01*
X180825Y50564D01*
X180850Y50545D01*
X180862Y50541D01*
X180880Y50529D01*
X185946Y48006D01*
X186001Y47990D01*
X186051Y47964D01*
X186152Y47943D01*
X186181Y47934D01*
X186195Y47934D01*
X186215Y47930D01*
X191851Y47408D01*
X191907Y47412D01*
X191964Y47406D01*
X192065Y47423D01*
G37*
%LPC*%
G36*
X76797Y286760D02*
X76797Y286760D01*
X71137Y289105D01*
X66805Y293437D01*
X64460Y299097D01*
X64460Y305223D01*
X66805Y310883D01*
X71137Y315215D01*
X76797Y317560D01*
X82923Y317560D01*
X88583Y315215D01*
X92915Y310883D01*
X95260Y305223D01*
X95260Y299097D01*
X92915Y293437D01*
X88583Y289105D01*
X82923Y286760D01*
X76797Y286760D01*
G37*
%LPD*%
D10*
X174860Y302160D03*
X79860Y302160D03*
X127360Y302160D03*
D11*
X141000Y117000D03*
D12*
X115600Y117000D03*
D13*
X174860Y128860D02*
X174860Y302160D01*
X174860Y128860D02*
X163000Y117000D01*
X141000Y117000D01*
X127360Y174760D02*
X127360Y302160D01*
X127360Y174760D02*
X115600Y163000D01*
X115600Y117000D01*
M02*
