G04 EAGLE Gerber RS-274X export*
G75*
%MOMM*%
%FSLAX34Y34*%
%LPD*%
%INSilkscreen Top*%
%IPPOS*%
%AMOC8*
5,1,8,0,0,1.08239X$1,22.5*%
G01*
%ADD10R,0.762000X0.042419*%
%ADD11R,0.805181X0.042419*%
%ADD12R,2.372362X0.042419*%
%ADD13R,2.369819X0.042419*%
%ADD14R,1.945638X0.042419*%
%ADD15R,0.762000X0.042162*%
%ADD16R,0.805181X0.042162*%
%ADD17R,2.372362X0.042162*%
%ADD18R,2.369819X0.042162*%
%ADD19R,1.945638X0.042162*%
%ADD20R,0.424181X0.042419*%
%ADD21R,0.802638X0.042419*%
%ADD22R,0.421637X0.042419*%
%ADD23R,0.845819X0.042419*%
%ADD24R,0.802638X0.042162*%
%ADD25R,2.750819X0.042162*%
%ADD26R,2.750819X0.042419*%
%ADD27R,1.186181X0.042162*%
%ADD28R,1.186181X0.042419*%
%ADD29R,1.988819X0.042162*%
%ADD30R,1.143000X0.042162*%
%ADD31R,1.948181X0.042419*%
%ADD32R,1.143000X0.042419*%
%ADD33R,1.948181X0.042162*%
%ADD34R,0.421637X0.042162*%
%ADD35R,0.424181X0.042162*%
%ADD36C,0.076200*%
%ADD37C,0.101600*%
%ADD38R,1.800000X1.800000*%
%ADD39C,0.100000*%
%ADD40C,0.200000*%
%ADD41C,0.200000*%


D10*
X13903Y207568D03*
D11*
X33575Y207568D03*
X43227Y207568D03*
D12*
X80273Y207568D03*
D13*
X109902Y207568D03*
X139112Y207568D03*
D14*
X166633Y207568D03*
D13*
X194154Y207568D03*
D10*
X219973Y207568D03*
X237423Y207568D03*
D15*
X13903Y207991D03*
D16*
X33575Y207991D03*
X43227Y207991D03*
D17*
X80273Y207991D03*
D18*
X109902Y207991D03*
X139112Y207991D03*
D19*
X166633Y207991D03*
D18*
X194154Y207991D03*
D15*
X219973Y207991D03*
X237423Y207991D03*
D10*
X13903Y208414D03*
D11*
X33575Y208414D03*
X43227Y208414D03*
D12*
X80273Y208414D03*
D13*
X109902Y208414D03*
X139112Y208414D03*
D14*
X166633Y208414D03*
D13*
X194154Y208414D03*
D10*
X219973Y208414D03*
X237423Y208414D03*
X13903Y208838D03*
D11*
X33575Y208838D03*
X43227Y208838D03*
D12*
X80273Y208838D03*
D13*
X109902Y208838D03*
X139112Y208838D03*
D14*
X166633Y208838D03*
D13*
X194154Y208838D03*
D10*
X219973Y208838D03*
X237423Y208838D03*
D15*
X13903Y209261D03*
D16*
X33575Y209261D03*
X43227Y209261D03*
D17*
X80273Y209261D03*
D18*
X109902Y209261D03*
X139112Y209261D03*
D19*
X166633Y209261D03*
D18*
X194154Y209261D03*
D15*
X219973Y209261D03*
X237423Y209261D03*
D10*
X13903Y209684D03*
D11*
X33575Y209684D03*
X43227Y209684D03*
D12*
X80273Y209684D03*
D13*
X109902Y209684D03*
X139112Y209684D03*
D14*
X166633Y209684D03*
D13*
X194154Y209684D03*
D10*
X219973Y209684D03*
X237423Y209684D03*
X13903Y210108D03*
D11*
X33575Y210108D03*
X43227Y210108D03*
D12*
X80273Y210108D03*
D13*
X109902Y210108D03*
X139112Y210108D03*
D14*
X166633Y210108D03*
D13*
X194154Y210108D03*
D10*
X219973Y210108D03*
X237423Y210108D03*
D15*
X13903Y210531D03*
D16*
X33575Y210531D03*
X43227Y210531D03*
D17*
X80273Y210531D03*
D18*
X109902Y210531D03*
X139112Y210531D03*
D19*
X166633Y210531D03*
D18*
X194154Y210531D03*
D15*
X219973Y210531D03*
X237423Y210531D03*
D10*
X13903Y210954D03*
D11*
X33575Y210954D03*
X43227Y210954D03*
D12*
X80273Y210954D03*
D13*
X109902Y210954D03*
X139112Y210954D03*
D14*
X166633Y210954D03*
D13*
X194154Y210954D03*
D10*
X219973Y210954D03*
X237423Y210954D03*
X13903Y211378D03*
D11*
X33575Y211378D03*
X43227Y211378D03*
D20*
X70532Y211378D03*
X100174Y211378D03*
D21*
X117738Y211378D03*
D20*
X129384Y211378D03*
D21*
X146948Y211378D03*
D22*
X159013Y211378D03*
D23*
X194154Y211378D03*
D10*
X219973Y211378D03*
D15*
X13903Y211801D03*
D16*
X33575Y211801D03*
X43227Y211801D03*
D15*
X68411Y211801D03*
X98053Y211801D03*
D24*
X117738Y211801D03*
D15*
X127263Y211801D03*
D24*
X146948Y211801D03*
D15*
X156905Y211801D03*
X194141Y211801D03*
X219973Y211801D03*
D10*
X13903Y212224D03*
D11*
X33575Y212224D03*
X43227Y212224D03*
D10*
X68411Y212224D03*
X98053Y212224D03*
D21*
X117738Y212224D03*
D10*
X127263Y212224D03*
D21*
X146948Y212224D03*
D10*
X156905Y212224D03*
X194141Y212224D03*
X219973Y212224D03*
X13903Y212648D03*
D11*
X33575Y212648D03*
X43227Y212648D03*
D10*
X68411Y212648D03*
X98053Y212648D03*
D21*
X117738Y212648D03*
D10*
X127263Y212648D03*
D21*
X146948Y212648D03*
D10*
X156905Y212648D03*
X194141Y212648D03*
X219973Y212648D03*
D15*
X13903Y213071D03*
D16*
X33575Y213071D03*
X43227Y213071D03*
D15*
X68411Y213071D03*
X98053Y213071D03*
D24*
X117738Y213071D03*
D15*
X127263Y213071D03*
D24*
X146948Y213071D03*
D15*
X156905Y213071D03*
X194141Y213071D03*
X219973Y213071D03*
D10*
X13903Y213494D03*
D11*
X33575Y213494D03*
X43227Y213494D03*
D10*
X68411Y213494D03*
X98053Y213494D03*
D21*
X117738Y213494D03*
D10*
X127263Y213494D03*
D21*
X146948Y213494D03*
D10*
X156905Y213494D03*
X194141Y213494D03*
X219973Y213494D03*
X13903Y213918D03*
D11*
X33575Y213918D03*
X43227Y213918D03*
D10*
X68411Y213918D03*
X98053Y213918D03*
D21*
X117738Y213918D03*
D10*
X127263Y213918D03*
D21*
X146948Y213918D03*
D10*
X156905Y213918D03*
X194141Y213918D03*
X219973Y213918D03*
D15*
X13903Y214341D03*
D16*
X33575Y214341D03*
X43227Y214341D03*
D15*
X68411Y214341D03*
X98053Y214341D03*
D24*
X117738Y214341D03*
D15*
X127263Y214341D03*
D24*
X146948Y214341D03*
D15*
X156905Y214341D03*
X194141Y214341D03*
X219973Y214341D03*
D10*
X13903Y214764D03*
D11*
X33575Y214764D03*
X43227Y214764D03*
D10*
X68411Y214764D03*
X98053Y214764D03*
D21*
X117738Y214764D03*
D10*
X127263Y214764D03*
D21*
X146948Y214764D03*
D10*
X156905Y214764D03*
X194141Y214764D03*
X219973Y214764D03*
D21*
X14106Y215188D03*
D11*
X33575Y215188D03*
X43227Y215188D03*
D10*
X68411Y215188D03*
D11*
X98269Y215188D03*
D21*
X117738Y215188D03*
D10*
X127263Y215188D03*
D21*
X146948Y215188D03*
X157108Y215188D03*
D10*
X194141Y215188D03*
X219973Y215188D03*
D25*
X23847Y215611D03*
D16*
X43227Y215611D03*
D15*
X68411Y215611D03*
D18*
X109902Y215611D03*
D15*
X127263Y215611D03*
D24*
X146948Y215611D03*
D25*
X166849Y215611D03*
D15*
X194141Y215611D03*
X219973Y215611D03*
X237423Y215611D03*
D26*
X23847Y216034D03*
D11*
X43227Y216034D03*
D10*
X68411Y216034D03*
D13*
X109902Y216034D03*
D10*
X127263Y216034D03*
D21*
X146948Y216034D03*
D26*
X166849Y216034D03*
D10*
X194141Y216034D03*
X219973Y216034D03*
X237423Y216034D03*
D26*
X23847Y216458D03*
D11*
X43227Y216458D03*
D10*
X68411Y216458D03*
D13*
X109902Y216458D03*
D10*
X127263Y216458D03*
D21*
X146948Y216458D03*
D26*
X166849Y216458D03*
D10*
X194141Y216458D03*
X219973Y216458D03*
X237423Y216458D03*
D25*
X23847Y216881D03*
D16*
X43227Y216881D03*
D15*
X68411Y216881D03*
D18*
X109902Y216881D03*
D15*
X127263Y216881D03*
D24*
X146948Y216881D03*
D25*
X166849Y216881D03*
D15*
X194141Y216881D03*
X219973Y216881D03*
X237423Y216881D03*
D26*
X23847Y217304D03*
D11*
X43227Y217304D03*
D10*
X68411Y217304D03*
D13*
X109902Y217304D03*
D10*
X127263Y217304D03*
D21*
X146948Y217304D03*
D26*
X166849Y217304D03*
D10*
X194141Y217304D03*
X219973Y217304D03*
X237423Y217304D03*
D26*
X23847Y217728D03*
D11*
X43227Y217728D03*
D10*
X68411Y217728D03*
D13*
X109902Y217728D03*
D10*
X127263Y217728D03*
D21*
X146948Y217728D03*
D26*
X166849Y217728D03*
D10*
X194141Y217728D03*
X219973Y217728D03*
X237423Y217728D03*
D25*
X23847Y218151D03*
D16*
X43227Y218151D03*
D15*
X68411Y218151D03*
D18*
X109902Y218151D03*
D15*
X127263Y218151D03*
D24*
X146948Y218151D03*
D25*
X166849Y218151D03*
D15*
X194141Y218151D03*
X219973Y218151D03*
X237423Y218151D03*
D26*
X23847Y218574D03*
D11*
X43227Y218574D03*
D10*
X68411Y218574D03*
D13*
X109902Y218574D03*
D10*
X127263Y218574D03*
D21*
X146948Y218574D03*
D26*
X166849Y218574D03*
D10*
X194141Y218574D03*
X219973Y218574D03*
X237423Y218574D03*
D26*
X23847Y218998D03*
D11*
X43227Y218998D03*
D10*
X68411Y218998D03*
D13*
X109902Y218998D03*
D10*
X127263Y218998D03*
D21*
X146948Y218998D03*
D26*
X166849Y218998D03*
D10*
X194141Y218998D03*
X219973Y218998D03*
X237423Y218998D03*
D15*
X13903Y219421D03*
D16*
X33575Y219421D03*
D27*
X45132Y219421D03*
D15*
X68411Y219421D03*
D24*
X117738Y219421D03*
D15*
X127263Y219421D03*
D24*
X146948Y219421D03*
D15*
X156905Y219421D03*
D16*
X176577Y219421D03*
D15*
X194141Y219421D03*
X219973Y219421D03*
X237423Y219421D03*
D10*
X13903Y219844D03*
D11*
X33575Y219844D03*
D28*
X45132Y219844D03*
D10*
X68411Y219844D03*
D21*
X117738Y219844D03*
D10*
X127263Y219844D03*
D21*
X146948Y219844D03*
D10*
X156905Y219844D03*
D11*
X176577Y219844D03*
D10*
X194141Y219844D03*
X219973Y219844D03*
X237423Y219844D03*
X13903Y220268D03*
D11*
X33575Y220268D03*
D28*
X45132Y220268D03*
D10*
X68411Y220268D03*
D21*
X117738Y220268D03*
D10*
X127263Y220268D03*
D21*
X146948Y220268D03*
D10*
X156905Y220268D03*
D11*
X176577Y220268D03*
D10*
X194141Y220268D03*
X219973Y220268D03*
X237423Y220268D03*
D15*
X13903Y220691D03*
D16*
X33575Y220691D03*
D27*
X45132Y220691D03*
D15*
X68411Y220691D03*
D24*
X117738Y220691D03*
D15*
X127263Y220691D03*
D24*
X146948Y220691D03*
D15*
X156905Y220691D03*
D16*
X176577Y220691D03*
D15*
X194141Y220691D03*
X219973Y220691D03*
X237423Y220691D03*
D10*
X13903Y221114D03*
D11*
X33575Y221114D03*
D28*
X45132Y221114D03*
D10*
X68411Y221114D03*
D21*
X117738Y221114D03*
D10*
X127263Y221114D03*
D21*
X146948Y221114D03*
D10*
X156905Y221114D03*
D11*
X176577Y221114D03*
D10*
X194141Y221114D03*
X219973Y221114D03*
X237423Y221114D03*
X13903Y221538D03*
D11*
X33575Y221538D03*
D28*
X45132Y221538D03*
D10*
X68411Y221538D03*
D21*
X117738Y221538D03*
D10*
X127263Y221538D03*
D21*
X146948Y221538D03*
D10*
X156905Y221538D03*
D11*
X176577Y221538D03*
D10*
X194141Y221538D03*
X219973Y221538D03*
X237423Y221538D03*
D15*
X13903Y221961D03*
D16*
X33575Y221961D03*
D27*
X45132Y221961D03*
D15*
X68411Y221961D03*
D24*
X117738Y221961D03*
D15*
X127263Y221961D03*
D24*
X146948Y221961D03*
D15*
X156905Y221961D03*
D16*
X176577Y221961D03*
D15*
X194141Y221961D03*
X219973Y221961D03*
X237423Y221961D03*
D10*
X13903Y222384D03*
D11*
X33575Y222384D03*
D28*
X45132Y222384D03*
D10*
X68411Y222384D03*
D21*
X117738Y222384D03*
D10*
X127263Y222384D03*
D21*
X146948Y222384D03*
D10*
X156905Y222384D03*
D11*
X176577Y222384D03*
D10*
X194141Y222384D03*
X219973Y222384D03*
X237423Y222384D03*
X13903Y222808D03*
D11*
X33575Y222808D03*
D28*
X45132Y222808D03*
D10*
X68411Y222808D03*
D21*
X117738Y222808D03*
D10*
X127263Y222808D03*
D21*
X146948Y222808D03*
D10*
X156905Y222808D03*
D11*
X176577Y222808D03*
D10*
X194141Y222808D03*
X219973Y222808D03*
X237423Y222808D03*
D15*
X13903Y223231D03*
D16*
X33575Y223231D03*
X43227Y223231D03*
D27*
X56994Y223231D03*
D17*
X80273Y223231D03*
D29*
X107997Y223231D03*
D18*
X139112Y223231D03*
D29*
X166849Y223231D03*
D15*
X194141Y223231D03*
X219973Y223231D03*
D30*
X239328Y223231D03*
D10*
X13903Y223654D03*
D11*
X33575Y223654D03*
X43227Y223654D03*
D28*
X56994Y223654D03*
D12*
X80273Y223654D03*
D31*
X107794Y223654D03*
D13*
X139112Y223654D03*
D14*
X166633Y223654D03*
D10*
X194141Y223654D03*
X219973Y223654D03*
D32*
X239328Y223654D03*
D10*
X13903Y224078D03*
D11*
X33575Y224078D03*
X43227Y224078D03*
D28*
X56994Y224078D03*
D12*
X80273Y224078D03*
D31*
X107794Y224078D03*
D13*
X139112Y224078D03*
D14*
X166633Y224078D03*
D10*
X194141Y224078D03*
X219973Y224078D03*
D32*
X239328Y224078D03*
D15*
X13903Y224501D03*
D16*
X33575Y224501D03*
X43227Y224501D03*
D27*
X56994Y224501D03*
D17*
X80273Y224501D03*
D33*
X107794Y224501D03*
D18*
X139112Y224501D03*
D19*
X166633Y224501D03*
D15*
X194141Y224501D03*
X219973Y224501D03*
D30*
X239328Y224501D03*
D10*
X13903Y224924D03*
D11*
X33575Y224924D03*
X43227Y224924D03*
D28*
X56994Y224924D03*
D12*
X80273Y224924D03*
D31*
X107794Y224924D03*
D13*
X139112Y224924D03*
D14*
X166633Y224924D03*
D10*
X194141Y224924D03*
X219973Y224924D03*
D32*
X239328Y224924D03*
D10*
X13903Y225348D03*
D11*
X33575Y225348D03*
X43227Y225348D03*
D28*
X56994Y225348D03*
D12*
X80273Y225348D03*
D31*
X107794Y225348D03*
D13*
X139112Y225348D03*
D14*
X166633Y225348D03*
D10*
X194141Y225348D03*
X219973Y225348D03*
D32*
X239328Y225348D03*
D15*
X13903Y225771D03*
D16*
X33575Y225771D03*
X43227Y225771D03*
D27*
X56994Y225771D03*
D17*
X80273Y225771D03*
D33*
X107794Y225771D03*
D18*
X139112Y225771D03*
D19*
X166633Y225771D03*
D15*
X194141Y225771D03*
X219973Y225771D03*
D30*
X239328Y225771D03*
D10*
X13903Y226194D03*
D11*
X33575Y226194D03*
X43227Y226194D03*
D28*
X56994Y226194D03*
D12*
X80273Y226194D03*
D31*
X107794Y226194D03*
D13*
X139112Y226194D03*
D14*
X166633Y226194D03*
D10*
X194141Y226194D03*
X219973Y226194D03*
D32*
X239328Y226194D03*
D10*
X13903Y226618D03*
D11*
X33575Y226618D03*
X43227Y226618D03*
D28*
X56994Y226618D03*
D12*
X80273Y226618D03*
D31*
X107794Y226618D03*
D13*
X139112Y226618D03*
D14*
X166633Y226618D03*
D10*
X194141Y226618D03*
X219973Y226618D03*
D32*
X239328Y226618D03*
D34*
X16011Y227041D03*
D35*
X31670Y227041D03*
D24*
X146948Y227041D03*
D15*
X194141Y227041D03*
X219973Y227041D03*
D30*
X239328Y227041D03*
D21*
X17916Y227464D03*
D10*
X29549Y227464D03*
D21*
X146948Y227464D03*
D10*
X194141Y227464D03*
X219973Y227464D03*
D32*
X239328Y227464D03*
D21*
X17916Y227888D03*
D10*
X29549Y227888D03*
D21*
X146948Y227888D03*
D10*
X194141Y227888D03*
X219973Y227888D03*
D32*
X239328Y227888D03*
D24*
X17916Y228311D03*
D15*
X29549Y228311D03*
D24*
X146948Y228311D03*
D15*
X194141Y228311D03*
X219973Y228311D03*
D30*
X239328Y228311D03*
D21*
X17916Y228734D03*
D10*
X29549Y228734D03*
D21*
X146948Y228734D03*
D10*
X194141Y228734D03*
X219973Y228734D03*
D32*
X239328Y228734D03*
D21*
X17916Y229158D03*
D10*
X29549Y229158D03*
D21*
X146948Y229158D03*
D10*
X194141Y229158D03*
X219973Y229158D03*
D32*
X239328Y229158D03*
D24*
X17916Y229581D03*
D15*
X29549Y229581D03*
D24*
X146948Y229581D03*
D15*
X194141Y229581D03*
X219973Y229581D03*
D30*
X239328Y229581D03*
D21*
X17916Y230004D03*
D10*
X29549Y230004D03*
D21*
X146948Y230004D03*
D10*
X194141Y230004D03*
X219973Y230004D03*
D32*
X239328Y230004D03*
D21*
X17916Y230428D03*
D10*
X29549Y230428D03*
D21*
X146948Y230428D03*
D10*
X194141Y230428D03*
X219973Y230428D03*
D32*
X239328Y230428D03*
D24*
X17916Y230851D03*
D15*
X29549Y230851D03*
D24*
X146948Y230851D03*
D15*
X194141Y230851D03*
X219973Y230851D03*
D30*
X239328Y230851D03*
D32*
X23834Y231274D03*
D21*
X146948Y231274D03*
D13*
X194154Y231274D03*
D12*
X219973Y231274D03*
D32*
X239328Y231274D03*
X23834Y231698D03*
D21*
X146948Y231698D03*
D13*
X194154Y231698D03*
D12*
X219973Y231698D03*
D32*
X239328Y231698D03*
D30*
X23834Y232121D03*
D24*
X146948Y232121D03*
D18*
X194154Y232121D03*
D17*
X219973Y232121D03*
D30*
X239328Y232121D03*
D32*
X23834Y232544D03*
D21*
X146948Y232544D03*
D13*
X194154Y232544D03*
D12*
X219973Y232544D03*
D32*
X239328Y232544D03*
X23834Y232968D03*
D21*
X146948Y232968D03*
D13*
X194154Y232968D03*
D12*
X219973Y232968D03*
D32*
X239328Y232968D03*
D30*
X23834Y233391D03*
D24*
X146948Y233391D03*
D18*
X194154Y233391D03*
D17*
X219973Y233391D03*
D30*
X239328Y233391D03*
D32*
X23834Y233814D03*
D21*
X146948Y233814D03*
D13*
X194154Y233814D03*
D12*
X219973Y233814D03*
D32*
X239328Y233814D03*
X23834Y234238D03*
D21*
X146948Y234238D03*
D13*
X194154Y234238D03*
D12*
X219973Y234238D03*
D32*
X239328Y234238D03*
D30*
X23834Y234661D03*
D24*
X146948Y234661D03*
D18*
X194154Y234661D03*
D17*
X219973Y234661D03*
D30*
X239328Y234661D03*
D36*
X52567Y191844D02*
X50109Y194302D01*
X50109Y196759D01*
X52567Y199217D01*
X58785Y199217D02*
X60014Y197988D01*
X58785Y199217D02*
X56327Y199217D01*
X55099Y197988D01*
X55099Y193073D01*
X56327Y191844D01*
X58785Y191844D01*
X60014Y193073D01*
X62583Y191844D02*
X65040Y194302D01*
X65040Y196759D01*
X62583Y199217D01*
X67572Y191844D02*
X72487Y191844D01*
X67572Y191844D02*
X72487Y196759D01*
X72487Y197988D01*
X71258Y199217D01*
X68801Y199217D01*
X67572Y197988D01*
X75056Y197988D02*
X75056Y193073D01*
X75056Y197988D02*
X76285Y199217D01*
X78743Y199217D01*
X79971Y197988D01*
X79971Y193073D01*
X78743Y191844D01*
X76285Y191844D01*
X75056Y193073D01*
X79971Y197988D01*
X82541Y191844D02*
X87455Y191844D01*
X82541Y191844D02*
X87455Y196759D01*
X87455Y197988D01*
X86227Y199217D01*
X83769Y199217D01*
X82541Y197988D01*
X90025Y197988D02*
X90025Y193073D01*
X90025Y197988D02*
X91253Y199217D01*
X93711Y199217D01*
X94940Y197988D01*
X94940Y193073D01*
X93711Y191844D01*
X91253Y191844D01*
X90025Y193073D01*
X94940Y197988D01*
X104993Y196759D02*
X104993Y193073D01*
X106222Y191844D01*
X107450Y193073D01*
X108679Y191844D01*
X109908Y193073D01*
X109908Y196759D01*
X112477Y196759D02*
X112477Y193073D01*
X113706Y191844D01*
X114935Y193073D01*
X116163Y191844D01*
X117392Y193073D01*
X117392Y196759D01*
X119961Y196759D02*
X119961Y193073D01*
X121190Y191844D01*
X122419Y193073D01*
X123648Y191844D01*
X124876Y193073D01*
X124876Y196759D01*
X127446Y193073D02*
X127446Y191844D01*
X127446Y193073D02*
X128674Y193073D01*
X128674Y191844D01*
X127446Y191844D01*
X136102Y191844D02*
X136102Y199217D01*
X136102Y191844D02*
X132416Y191844D01*
X131188Y193073D01*
X131188Y195531D01*
X132416Y196759D01*
X136102Y196759D01*
X138672Y196759D02*
X139900Y196759D01*
X139900Y191844D01*
X138672Y191844D02*
X141129Y191844D01*
X139900Y199217D02*
X139900Y200445D01*
X146119Y189387D02*
X147347Y189387D01*
X148576Y190616D01*
X148576Y196759D01*
X144890Y196759D01*
X143661Y195531D01*
X143661Y193073D01*
X144890Y191844D01*
X148576Y191844D01*
X151145Y196759D02*
X152374Y196759D01*
X152374Y191844D01*
X151145Y191844D02*
X153603Y191844D01*
X152374Y199217D02*
X152374Y200445D01*
X156135Y196759D02*
X156135Y191844D01*
X156135Y196759D02*
X157363Y196759D01*
X158592Y195531D01*
X158592Y191844D01*
X158592Y195531D02*
X159821Y196759D01*
X161050Y195531D01*
X161050Y191844D01*
X164848Y191844D02*
X167305Y191844D01*
X168534Y193073D01*
X168534Y195531D01*
X167305Y196759D01*
X164848Y196759D01*
X163619Y195531D01*
X163619Y193073D01*
X164848Y191844D01*
X171103Y191844D02*
X171103Y196759D01*
X171103Y194302D02*
X173561Y196759D01*
X174789Y196759D01*
X178569Y197988D02*
X178569Y191844D01*
X178569Y197988D02*
X179797Y199217D01*
X179797Y195531D02*
X177340Y195531D01*
X182329Y193073D02*
X182329Y191844D01*
X182329Y193073D02*
X183558Y193073D01*
X183558Y191844D01*
X182329Y191844D01*
X187300Y196759D02*
X190986Y196759D01*
X187300Y196759D02*
X186071Y195531D01*
X186071Y193073D01*
X187300Y191844D01*
X190986Y191844D01*
X194784Y191844D02*
X197242Y191844D01*
X198470Y193073D01*
X198470Y195531D01*
X197242Y196759D01*
X194784Y196759D01*
X193556Y195531D01*
X193556Y193073D01*
X194784Y191844D01*
X201040Y191844D02*
X201040Y196759D01*
X202268Y196759D01*
X203497Y195531D01*
X203497Y191844D01*
X203497Y195531D02*
X204726Y196759D01*
X205955Y195531D01*
X205955Y191844D01*
X87746Y159078D02*
X87746Y151706D01*
X87746Y159078D02*
X91432Y159078D01*
X92661Y157850D01*
X92661Y155392D01*
X91432Y154164D01*
X87746Y154164D01*
X90203Y154164D02*
X92661Y151706D01*
X95230Y159078D02*
X100145Y159078D01*
X95230Y159078D02*
X95230Y151706D01*
X100145Y151706D01*
X97688Y155392D02*
X95230Y155392D01*
X102714Y154164D02*
X102714Y159078D01*
X102714Y154164D02*
X105172Y151706D01*
X107629Y154164D01*
X107629Y159078D01*
X110199Y152935D02*
X110199Y151706D01*
X110199Y152935D02*
X111427Y152935D01*
X111427Y151706D01*
X110199Y151706D01*
X113941Y151706D02*
X113941Y156621D01*
X116398Y159078D01*
X118855Y156621D01*
X118855Y151706D01*
X118855Y155392D02*
X113941Y155392D01*
X128909Y155392D02*
X133824Y155392D01*
X143877Y156621D02*
X146335Y151706D01*
X148792Y156621D01*
X151361Y156621D02*
X153819Y159078D01*
X153819Y151706D01*
X156276Y151706D02*
X151361Y151706D01*
X158846Y151706D02*
X158846Y152935D01*
X160074Y152935D01*
X160074Y151706D01*
X158846Y151706D01*
X162588Y152935D02*
X162588Y157850D01*
X163816Y159078D01*
X166274Y159078D01*
X167502Y157850D01*
X167502Y152935D01*
X166274Y151706D01*
X163816Y151706D01*
X162588Y152935D01*
X167502Y157850D01*
X21768Y162953D02*
X21768Y170326D01*
X25454Y170326D01*
X26683Y169097D01*
X26683Y166639D01*
X25454Y165411D01*
X21768Y165411D01*
X30481Y167868D02*
X32939Y167868D01*
X34167Y166639D01*
X34167Y162953D01*
X30481Y162953D01*
X29252Y164182D01*
X30481Y165411D01*
X34167Y165411D01*
X36737Y167868D02*
X36737Y162953D01*
X36737Y165411D02*
X39194Y167868D01*
X40423Y167868D01*
X44202Y169097D02*
X44202Y164182D01*
X45431Y162953D01*
X45431Y167868D02*
X42973Y167868D01*
X47963Y167868D02*
X49192Y167868D01*
X49192Y166639D01*
X47963Y166639D01*
X47963Y167868D01*
X47963Y164182D02*
X49192Y164182D01*
X49192Y162953D01*
X47963Y162953D01*
X47963Y164182D01*
X59189Y162953D02*
X59189Y167868D01*
X61646Y170326D01*
X64104Y167868D01*
X64104Y162953D01*
X64104Y166639D02*
X59189Y166639D01*
X66673Y167868D02*
X69131Y170326D01*
X69131Y162953D01*
X71588Y162953D02*
X66673Y162953D01*
X74157Y164182D02*
X74157Y169097D01*
X75386Y170326D01*
X77844Y170326D01*
X79072Y169097D01*
X79072Y164182D01*
X77844Y162953D01*
X75386Y162953D01*
X74157Y164182D01*
X79072Y169097D01*
X81642Y169097D02*
X81642Y164182D01*
X81642Y169097D02*
X82870Y170326D01*
X85328Y170326D01*
X86556Y169097D01*
X86556Y164182D01*
X85328Y162953D01*
X82870Y162953D01*
X81642Y164182D01*
X86556Y169097D01*
X89126Y166639D02*
X94041Y166639D01*
X100296Y170326D02*
X101525Y169097D01*
X100296Y170326D02*
X97839Y170326D01*
X96610Y169097D01*
X96610Y167868D01*
X97839Y166639D01*
X100296Y166639D01*
X101525Y165411D01*
X101525Y164182D01*
X100296Y162953D01*
X97839Y162953D01*
X96610Y164182D01*
X104094Y162953D02*
X104094Y170326D01*
X106551Y165411D02*
X104094Y162953D01*
X106551Y165411D02*
X109009Y162953D01*
X109009Y170326D01*
X111578Y162953D02*
X114036Y162953D01*
X112807Y162953D02*
X112807Y170326D01*
X111578Y170326D02*
X114036Y170326D01*
X119025Y170326D02*
X119025Y162953D01*
X116568Y170326D02*
X121482Y170326D01*
X127738Y170326D02*
X128967Y169097D01*
X127738Y170326D02*
X125280Y170326D01*
X124052Y169097D01*
X124052Y164182D01*
X125280Y162953D01*
X127738Y162953D01*
X128967Y164182D01*
X131536Y162953D02*
X131536Y170326D01*
X131536Y166639D02*
X136451Y166639D01*
X136451Y162953D02*
X136451Y170326D01*
X146504Y169097D02*
X151419Y164182D01*
X146504Y164182D02*
X151419Y169097D01*
X151419Y166639D02*
X146504Y166639D01*
X148962Y164182D02*
X148962Y169097D01*
X157675Y170326D02*
X158903Y169097D01*
X157675Y170326D02*
X155217Y170326D01*
X153988Y169097D01*
X153988Y167868D01*
X155217Y166639D01*
X157675Y166639D01*
X158903Y165411D01*
X158903Y164182D01*
X157675Y162953D01*
X155217Y162953D01*
X153988Y164182D01*
X161473Y162953D02*
X161473Y170326D01*
X163930Y165411D02*
X161473Y162953D01*
X163930Y165411D02*
X166387Y162953D01*
X166387Y170326D01*
X168957Y162953D02*
X171414Y162953D01*
X170185Y162953D02*
X170185Y170326D01*
X168957Y170326D02*
X171414Y170326D01*
X176404Y170326D02*
X176404Y162953D01*
X173946Y170326D02*
X178861Y170326D01*
X185116Y170326D02*
X186345Y169097D01*
X185116Y170326D02*
X182659Y170326D01*
X181430Y169097D01*
X181430Y164182D01*
X182659Y162953D01*
X185116Y162953D01*
X186345Y164182D01*
X188914Y162953D02*
X188914Y170326D01*
X188914Y166639D02*
X193829Y166639D01*
X193829Y162953D02*
X193829Y170326D01*
X203883Y170326D02*
X203883Y164182D01*
X205111Y162953D01*
X207569Y162953D01*
X208798Y164182D01*
X208798Y170326D01*
X211367Y167868D02*
X211367Y162953D01*
X211367Y167868D02*
X215053Y167868D01*
X216282Y166639D01*
X216282Y162953D01*
X218851Y167868D02*
X220080Y167868D01*
X220080Y162953D01*
X221308Y162953D02*
X218851Y162953D01*
X220080Y170326D02*
X220080Y171554D01*
X225069Y169097D02*
X225069Y164182D01*
X226298Y162953D01*
X226298Y167868D02*
X223841Y167868D01*
X228830Y169097D02*
X233745Y164182D01*
X228830Y164182D02*
X233745Y169097D01*
X233745Y166639D02*
X228830Y166639D01*
X231287Y164182D02*
X231287Y169097D01*
D37*
X245249Y202590D02*
X8308Y202590D01*
X26561Y64001D02*
X38245Y64001D01*
X63645Y90409D02*
X63645Y102093D01*
X90061Y64001D02*
X101745Y64001D01*
X153561Y64001D02*
X165245Y64001D01*
X190645Y90409D02*
X190645Y102093D01*
X217061Y64001D02*
X228745Y64001D01*
D38*
X233000Y66000D03*
X13000Y66000D03*
X73000Y263000D03*
X113000Y46000D03*
D36*
X122124Y96894D02*
X120556Y98462D01*
X117421Y98462D01*
X115853Y96894D01*
X115853Y90624D01*
X117421Y89056D01*
X120556Y89056D01*
X122124Y90624D01*
X125208Y89056D02*
X125208Y98462D01*
X131479Y89056D01*
X131479Y98462D01*
X134564Y95327D02*
X137699Y98462D01*
X137699Y89056D01*
X134564Y89056D02*
X140834Y89056D01*
X77276Y181182D02*
X77276Y184868D01*
X77276Y181182D02*
X78505Y179953D01*
X79733Y181182D01*
X80962Y179953D01*
X82191Y181182D01*
X82191Y184868D01*
X84760Y184868D02*
X84760Y181182D01*
X85989Y179953D01*
X87217Y181182D01*
X88446Y179953D01*
X89675Y181182D01*
X89675Y184868D01*
X92244Y184868D02*
X92244Y181182D01*
X93473Y179953D01*
X94702Y181182D01*
X95930Y179953D01*
X97159Y181182D01*
X97159Y184868D01*
X99728Y181182D02*
X99728Y179953D01*
X99728Y181182D02*
X100957Y181182D01*
X100957Y179953D01*
X99728Y179953D01*
X104699Y184868D02*
X107156Y184868D01*
X108385Y183639D01*
X108385Y179953D01*
X104699Y179953D01*
X103470Y181182D01*
X104699Y182411D01*
X108385Y182411D01*
X110955Y184868D02*
X110955Y179953D01*
X110955Y182411D02*
X113412Y184868D01*
X114641Y184868D01*
X118420Y184868D02*
X122106Y184868D01*
X118420Y184868D02*
X117191Y183639D01*
X117191Y181182D01*
X118420Y179953D01*
X122106Y179953D01*
X125904Y184868D02*
X128362Y184868D01*
X129590Y183639D01*
X129590Y179953D01*
X125904Y179953D01*
X124675Y181182D01*
X125904Y182411D01*
X129590Y182411D01*
X137074Y179953D02*
X137074Y187326D01*
X137074Y179953D02*
X133388Y179953D01*
X132160Y181182D01*
X132160Y183639D01*
X133388Y184868D01*
X137074Y184868D01*
X140872Y179953D02*
X143330Y179953D01*
X140872Y179953D02*
X139644Y181182D01*
X139644Y183639D01*
X140872Y184868D01*
X143330Y184868D01*
X144559Y183639D01*
X144559Y182411D01*
X139644Y182411D01*
X147128Y184868D02*
X148357Y184868D01*
X148357Y179953D01*
X149585Y179953D02*
X147128Y179953D01*
X148357Y187326D02*
X148357Y188554D01*
X153346Y186097D02*
X153346Y181182D01*
X154575Y179953D01*
X154575Y184868D02*
X152117Y184868D01*
X157107Y181182D02*
X157107Y179953D01*
X157107Y181182D02*
X158335Y181182D01*
X158335Y179953D01*
X157107Y179953D01*
X160849Y179953D02*
X160849Y184868D01*
X164535Y184868D01*
X165764Y183639D01*
X165764Y179953D01*
X169562Y179953D02*
X172019Y179953D01*
X169562Y179953D02*
X168333Y181182D01*
X168333Y183639D01*
X169562Y184868D01*
X172019Y184868D01*
X173248Y183639D01*
X173248Y182411D01*
X168333Y182411D01*
X177046Y181182D02*
X177046Y186097D01*
X177046Y181182D02*
X178275Y179953D01*
X178275Y184868D02*
X175817Y184868D01*
D38*
X53000Y263000D03*
X33000Y283000D03*
X13000Y303000D03*
X13000Y46000D03*
X233000Y46000D03*
X233000Y263000D03*
X213000Y263000D03*
X73000Y243000D03*
X233000Y146000D03*
X213000Y146000D03*
X193000Y126000D03*
X173000Y106000D03*
X73000Y126000D03*
X53000Y146000D03*
X33000Y146000D03*
X13000Y146000D03*
X133000Y26000D03*
X153000Y26000D03*
X233000Y86000D03*
D37*
X63645Y38093D02*
X63645Y26409D01*
X190645Y26409D02*
X190645Y38093D01*
D36*
X196381Y35753D02*
X196381Y28381D01*
X198838Y33296D02*
X196381Y35753D01*
X198838Y33296D02*
X201296Y35753D01*
X201296Y28381D01*
X207551Y28381D02*
X207551Y35753D01*
X203865Y32067D01*
X208780Y32067D01*
X47381Y28381D02*
X47381Y35753D01*
X49838Y33296D01*
X52296Y35753D01*
X52296Y28381D01*
X58551Y28381D02*
X58551Y35753D01*
X54865Y32067D01*
X59780Y32067D01*
D39*
X30860Y276760D02*
X30860Y378360D01*
X223860Y378360D01*
X223860Y276760D01*
X30860Y276760D01*
X127360Y378360D02*
X127360Y454560D01*
X127360Y463460D01*
X178160Y463460D01*
X178160Y378360D01*
D40*
X173360Y269360D03*
D41*
X173362Y269422D01*
X173368Y269483D01*
X173377Y269544D01*
X173390Y269604D01*
X173407Y269663D01*
X173428Y269721D01*
X173452Y269778D01*
X173479Y269833D01*
X173510Y269886D01*
X173544Y269938D01*
X173581Y269987D01*
X173621Y270034D01*
X173664Y270078D01*
X173709Y270119D01*
X173757Y270158D01*
X173808Y270194D01*
X173860Y270226D01*
X173914Y270255D01*
X173970Y270281D01*
X174028Y270303D01*
X174086Y270322D01*
X174146Y270337D01*
X174207Y270348D01*
X174268Y270356D01*
X174329Y270360D01*
X174391Y270360D01*
X174452Y270356D01*
X174513Y270348D01*
X174574Y270337D01*
X174634Y270322D01*
X174692Y270303D01*
X174750Y270281D01*
X174806Y270255D01*
X174860Y270226D01*
X174912Y270194D01*
X174963Y270158D01*
X175011Y270119D01*
X175056Y270078D01*
X175099Y270034D01*
X175139Y269987D01*
X175176Y269938D01*
X175210Y269886D01*
X175241Y269833D01*
X175268Y269778D01*
X175292Y269721D01*
X175313Y269663D01*
X175330Y269604D01*
X175343Y269544D01*
X175352Y269483D01*
X175358Y269422D01*
X175360Y269360D01*
D40*
X175360Y269360D03*
D41*
X175358Y269298D01*
X175352Y269237D01*
X175343Y269176D01*
X175330Y269116D01*
X175313Y269057D01*
X175292Y268999D01*
X175268Y268942D01*
X175241Y268887D01*
X175210Y268834D01*
X175176Y268782D01*
X175139Y268733D01*
X175099Y268686D01*
X175056Y268642D01*
X175011Y268601D01*
X174963Y268562D01*
X174912Y268526D01*
X174860Y268494D01*
X174806Y268465D01*
X174750Y268439D01*
X174692Y268417D01*
X174634Y268398D01*
X174574Y268383D01*
X174513Y268372D01*
X174452Y268364D01*
X174391Y268360D01*
X174329Y268360D01*
X174268Y268364D01*
X174207Y268372D01*
X174146Y268383D01*
X174086Y268398D01*
X174028Y268417D01*
X173970Y268439D01*
X173914Y268465D01*
X173860Y268494D01*
X173808Y268526D01*
X173757Y268562D01*
X173709Y268601D01*
X173664Y268642D01*
X173621Y268686D01*
X173581Y268733D01*
X173544Y268782D01*
X173510Y268834D01*
X173479Y268887D01*
X173452Y268942D01*
X173428Y268999D01*
X173407Y269057D01*
X173390Y269116D01*
X173377Y269176D01*
X173368Y269237D01*
X173362Y269298D01*
X173360Y269360D01*
D36*
X121186Y251779D02*
X119618Y253347D01*
X116483Y253347D01*
X114915Y251779D01*
X114915Y250212D01*
X116483Y248644D01*
X119618Y248644D01*
X121186Y247076D01*
X121186Y245509D01*
X119618Y243941D01*
X116483Y243941D01*
X114915Y245509D01*
X124271Y243941D02*
X124271Y253347D01*
X127406Y247076D02*
X124271Y243941D01*
X127406Y247076D02*
X130541Y243941D01*
X130541Y253347D01*
X133626Y250212D02*
X136761Y253347D01*
X136761Y243941D01*
X133626Y243941D02*
X139897Y243941D01*
D41*
X153700Y129700D02*
X153700Y117000D01*
X153700Y129700D02*
X102900Y129700D01*
X102900Y104300D01*
X141000Y104300D01*
M02*
